<svg width="19" height="19" viewBox="0 0 19 19" fill="none" xmlns="http://www.w3.org/2000/svg">
<path d="M11.2753 1.55593C11.3008 1.46075 11.3447 1.37151 11.4047 1.29333C11.4647 1.21514 11.5394 1.14954 11.6248 1.10026C11.7101 1.05098 11.8043 1.019 11.902 1.00614C11.9996 0.993278 12.0989 0.999791 12.1941 1.02531C13.5844 1.38807 14.853 2.11491 15.869 3.13096C16.8851 4.14702 17.6119 5.41556 17.9747 6.80593C18.0002 6.9011 18.0067 7.00036 17.9939 7.09805C17.981 7.19573 17.949 7.28993 17.8997 7.37525C17.8505 7.46057 17.7849 7.53534 17.7067 7.5953C17.6285 7.65526 17.5393 7.69922 17.4441 7.72468C17.3807 7.74132 17.3155 7.74983 17.25 7.74999C17.0847 7.74999 16.9241 7.69539 16.793 7.59469C16.662 7.49399 16.5679 7.35282 16.5253 7.19312C16.2295 6.05811 15.6363 5.02253 14.8069 4.19314C13.9775 3.36375 12.9419 2.77054 11.8069 2.47468C11.7116 2.44932 11.6223 2.40543 11.544 2.34552C11.4657 2.2856 11.4 2.21084 11.3506 2.12551C11.3013 2.04018 11.2692 1.94595 11.2563 1.84822C11.2433 1.75048 11.2498 1.65116 11.2753 1.55593ZM11.0569 5.47468C12.3497 5.81968 13.1803 6.65031 13.5253 7.94312C13.5679 8.10282 13.662 8.24399 13.793 8.34469C13.9241 8.44539 14.0847 8.49999 14.25 8.49999C14.3155 8.49983 14.3807 8.49132 14.4441 8.47468C14.5393 8.44922 14.6285 8.40526 14.7067 8.3453C14.7849 8.28534 14.8505 8.21057 14.8997 8.12525C14.949 8.03993 14.981 7.94573 14.9939 7.84805C15.0067 7.75036 15.0002 7.6511 14.9747 7.55593C14.4947 5.75968 13.2403 4.50531 11.4441 4.02531C11.3489 3.99988 11.2497 3.99345 11.152 4.00638C11.0544 4.01932 10.9602 4.05135 10.8749 4.10067C10.7897 4.14999 10.7149 4.21562 10.655 4.29381C10.5951 4.372 10.5512 4.46123 10.5258 4.5564C10.5004 4.65157 10.4939 4.75081 10.5069 4.84846C10.5198 4.94611 10.5518 5.04026 10.6012 5.12553C10.6505 5.2108 10.7161 5.28553 10.7943 5.34543C10.8725 5.40534 10.9617 5.44926 11.0569 5.47468ZM18.7388 14.4137C18.5716 15.6841 17.9477 16.8501 16.9837 17.6941C16.0196 18.5381 14.7813 19.0023 13.5 19C6.05626 19 8.4831e-06 12.9437 8.4831e-06 5.49999C-0.00228837 4.2187 0.461903 2.98039 1.30588 2.01633C2.14986 1.05228 3.31592 0.428406 4.58626 0.261243C4.9075 0.222019 5.2328 0.287739 5.51362 0.448592C5.79444 0.609445 6.0157 0.856804 6.14438 1.15374L8.12438 5.57406V5.58531C8.2229 5.81261 8.26359 6.06077 8.24282 6.30763C8.22204 6.55449 8.14044 6.79236 8.00532 6.99999C7.98845 7.02531 7.97063 7.04874 7.95188 7.07218L6.00001 9.38593C6.7022 10.8128 8.1947 12.2922 9.64032 12.9962L11.9222 11.0547C11.9446 11.0358 11.9681 11.0183 11.9925 11.0022C12.2 10.8638 12.4387 10.7793 12.687 10.7564C12.9353 10.7335 13.1854 10.7729 13.4147 10.8709L13.4269 10.8766L17.8434 12.8556C18.1409 12.9838 18.3889 13.2049 18.5503 13.4858C18.7116 13.7666 18.7778 14.0922 18.7388 14.4137ZM17.25 14.2262C17.25 14.2262 17.2434 14.2262 17.2397 14.2262L12.8334 12.2528L10.5506 14.1944C10.5285 14.2131 10.5053 14.2307 10.4813 14.2469C10.2654 14.3909 10.0159 14.4764 9.75708 14.4952C9.49828 14.5139 9.23904 14.4652 9.0047 14.3537C7.24876 13.5053 5.49845 11.7681 4.64907 10.0309C4.5366 9.7983 4.48613 9.54055 4.50255 9.28268C4.51898 9.0248 4.60174 8.77554 4.74282 8.55906C4.75872 8.53364 4.77659 8.5095 4.79626 8.48687L6.75001 6.17031L4.78126 1.76406C4.78089 1.76032 4.78089 1.75655 4.78126 1.75281C3.87212 1.8714 3.03739 2.31733 2.43339 3.0071C1.8294 3.69687 1.49755 4.58316 1.50001 5.49999C1.50348 8.68152 2.76888 11.7318 5.01856 13.9814C7.26825 16.2311 10.3185 17.4965 13.5 17.5C14.4163 17.5031 15.3023 17.1725 15.9925 16.5698C16.6827 15.9671 17.1297 15.1337 17.25 14.2253V14.2262Z" fill="#758A88"/>
</svg>
